<mxfile host="app.diagrams.net" modified="2024-01-30T14:02:08.583Z" agent="Mozilla/5.0 (Windows NT 10.0; Win64; x64) AppleWebKit/537.36 (KHTML, like Gecko) Chrome/120.0.0.0 Safari/537.36 Edg/120.0.0.0" version="22.1.21" etag="40IpUfdk7kIbJJFkWd7m" type="github">
  <diagram name="Page-1" id="cwehg08nxp36dOia7YBw">
    <mxGraphModel>
      <root>
        <mxCell id="0" />
        <mxCell id="1" parent="0" />
      </root>
    </mxGraphModel>
  </diagram>
</mxfile>
